<svg xmlns="http://www.w3.org/2000/svg" viewBox="0 0 300 400" width="100%" height="100%">
  <defs>
    <linearGradient id="bookCoverGrad" x1="0%" y1="0%" x2="100%" y2="100%">
      <stop offset="0%" style="stop-color:#315b43;stop-opacity:1" />
      <stop offset="100%" style="stop-color:#1c3527;stop-opacity:1" />
    </linearGradient>
  </defs>
  <rect width="300" height="400" rx="8" fill="url(#bookCoverGrad)"/>
  <rect x="16" y="16" width="268" height="368" rx="6" fill="none" stroke="#d2e6aa" stroke-width="2" stroke-opacity="0.6"/>
  <rect x="24" y="24" width="252" height="352" rx="4" fill="none" stroke="#d2e6aa" stroke-width="1" stroke-opacity="0.3"/>
  
  <!-- Icon Book -->
  <g transform="translate(115, 140)" fill="none" stroke="#d2e6aa" stroke-width="3" stroke-linecap="round" stroke-linejoin="round">
    <path d="M4 35c8-5 18-5 31 0v-28c-13-5-23-5-31 0z"/>
    <path d="M66 35c-8-5-18-5-31 0v-28c13-5 23-5 31 0z"/>
    <path d="M35 7v28"/>
  </g>

  <text x="150" y="230" text-anchor="middle" fill="#ffffff" font-family="'Segoe UI', Georgia, serif" font-size="20" font-weight="700" letter-spacing="1.5">BOOK STORE</text>
  <text x="150" y="255" text-anchor="middle" fill="#d2e6aa" font-family="'Segoe UI', sans-serif" font-size="12" font-weight="600" letter-spacing="2">BÌA SÁCH</text>
  <line x1="100" y1="275" x2="200" y2="275" stroke="#d2e6aa" stroke-width="1" stroke-opacity="0.5"/>
</svg>
